<svg width="12" height="12" viewBox="0 0 12 12" fill="none" xmlns="http://www.w3.org/2000/svg">
<path d="M2.71658 0.311226C2.49565 0.30345 2.28068 0.383756 2.11897 0.534478C1.95725 0.685198 1.86203 0.893989 1.85425 1.11492C1.84648 1.33584 1.92678 1.55081 2.07751 1.71253C2.22823 1.87425 2.43702 1.96947 2.65794 1.97724L8.93572 2.19768L0.544214 9.90298C0.38142 10.0525 0.284675 10.2605 0.275262 10.4813C0.265848 10.7021 0.344538 10.9176 0.494021 11.0804C0.643503 11.2432 0.851534 11.34 1.07235 11.3494C1.29316 11.3588 1.50867 11.2801 1.67146 11.1306L10.0593 3.4287L9.74603 9.69779C9.74189 9.91431 9.82219 10.1239 9.96993 10.2823C10.1177 10.4406 10.3213 10.5352 10.5375 10.546C10.7538 10.5569 10.9658 10.4831 11.1287 10.3403C11.2915 10.1975 11.3923 9.99696 11.4098 9.78111L11.8155 1.69054C11.8223 1.5527 11.8017 1.41488 11.7548 1.28507C11.7079 1.15527 11.6357 1.03608 11.5423 0.934423C11.449 0.832767 11.3364 0.750672 11.211 0.69291C11.0857 0.635148 10.9501 0.602869 10.8122 0.597948L2.71658 0.311226Z" fill="white"/>
</svg>
