<svg width="21" height="20" viewBox="0 0 21 20" fill="none" xmlns="http://www.w3.org/2000/svg">
<g clip-path="url(#clip0_4467_897)">
<path d="M7.21658 4.31147C6.99565 4.30369 6.78068 4.384 6.61897 4.53472C6.45725 4.68544 6.36203 4.89423 6.35425 5.11516C6.34648 5.33609 6.42678 5.55106 6.57751 5.71277C6.72823 5.87449 6.93702 5.96971 7.15794 5.97749L13.4357 6.19792L5.04421 13.9032C4.88142 14.0527 4.78467 14.2607 4.77526 14.4816C4.76585 14.7024 4.84454 14.9179 4.99402 15.0807C5.1435 15.2435 5.35153 15.3402 5.57235 15.3496C5.79316 15.359 6.00867 15.2803 6.17146 15.1309L14.5593 7.42894L14.246 13.698C14.2419 13.9146 14.3222 14.1242 14.4699 14.2825C14.6177 14.4409 14.8213 14.5355 15.0375 14.5463C15.2538 14.5571 15.4658 14.4833 15.6287 14.3405C15.7915 14.1978 15.8923 13.9972 15.9098 13.7814L16.3155 5.69079C16.3223 5.55295 16.3017 5.41512 16.2548 5.28532C16.2079 5.15552 16.1357 5.03632 16.0423 4.93467C15.949 4.83301 15.8364 4.75092 15.711 4.69315C15.5857 4.63539 15.4501 4.60311 15.3122 4.59819L7.21658 4.31147Z" fill="#172B48"/>
</g>
<defs>
<clipPath id="clip0_4467_897">
<rect width="20" height="20" fill="white" transform="translate(0.5)"/>
</clipPath>
</defs>
</svg>
