<svg width="21" height="20" viewBox="0 0 21 20" fill="none" xmlns="http://www.w3.org/2000/svg">
<path d="M10.5008 1.66663C15.1033 1.66663 18.8342 5.39746 18.8342 9.99996C18.8342 14.6025 15.1033 18.3333 10.5008 18.3333C9.02812 18.3358 7.58131 17.9461 6.30916 17.2041L2.17083 18.3333L3.29749 14.1933C2.55496 12.9207 2.16491 11.4733 2.16749 9.99996C2.16749 5.39746 5.89833 1.66663 10.5008 1.66663ZM7.66083 6.08329L7.49416 6.08996C7.3864 6.09738 7.28112 6.12569 7.18416 6.17329C7.09381 6.22455 7.01129 6.28854 6.93916 6.36329C6.83916 6.45746 6.78249 6.53913 6.72166 6.61829C6.41343 7.01904 6.24747 7.51105 6.24999 8.01663C6.25166 8.42496 6.35833 8.82246 6.52499 9.19413C6.86583 9.94579 7.42666 10.7416 8.16666 11.4791C8.34499 11.6566 8.51999 11.835 8.70833 12.0008C9.62785 12.8103 10.7236 13.3941 11.9083 13.7058L12.3817 13.7783C12.5358 13.7866 12.69 13.775 12.845 13.7675C13.0876 13.7547 13.3246 13.689 13.5392 13.575C13.6482 13.5186 13.7547 13.4574 13.8583 13.3916C13.8583 13.3916 13.8936 13.3677 13.9625 13.3166C14.075 13.2333 14.1442 13.1741 14.2375 13.0766C14.3075 13.0044 14.3658 12.9205 14.4125 12.825C14.4775 12.6891 14.5425 12.43 14.5692 12.2141C14.5892 12.0491 14.5833 11.9591 14.5808 11.9033C14.5775 11.8141 14.5033 11.7216 14.4225 11.6825L13.9375 11.465C13.9375 11.465 13.2125 11.1491 12.7692 10.9475C12.7228 10.9273 12.6731 10.9157 12.6225 10.9133C12.5655 10.9073 12.5078 10.9137 12.4535 10.9319C12.3991 10.9502 12.3493 10.9799 12.3075 11.0191C12.3033 11.0175 12.2475 11.065 11.645 11.795C11.6104 11.8414 11.5628 11.8765 11.5082 11.8958C11.4535 11.9151 11.3944 11.9177 11.3383 11.9033C11.284 11.8888 11.2308 11.8704 11.1792 11.8483C11.0758 11.805 11.04 11.7883 10.9692 11.7583C10.4907 11.5499 10.0479 11.2679 9.65666 10.9225C9.55166 10.8308 9.45416 10.7308 9.35416 10.6341C9.02634 10.3201 8.74062 9.96495 8.50416 9.57746L8.45499 9.49829C8.42021 9.44479 8.39169 9.38747 8.36999 9.32746C8.33833 9.20496 8.42083 9.10663 8.42083 9.10663C8.42083 9.10663 8.62333 8.88496 8.71749 8.76496C8.80916 8.64829 8.88666 8.53496 8.93666 8.45413C9.03499 8.29579 9.06583 8.13329 9.01416 8.00746C8.78083 7.43746 8.53972 6.87051 8.29083 6.30663C8.24166 6.19496 8.09583 6.11496 7.96333 6.09913C7.91833 6.09357 7.87333 6.08913 7.82833 6.08579C7.71643 6.07937 7.60424 6.08049 7.49249 6.08913L7.66083 6.08329Z" fill="white"/>
</svg>
