<svg width="303" height="75" viewBox="0 0 303 75" fill="none" xmlns="http://www.w3.org/2000/svg">
<path d="M21.3217 20.0909V55H12.8842V20.0909H21.3217ZM25.4766 26.9432V20.0909H54.9822V26.9432H44.397V55H36.0788V26.9432H25.4766ZM88.2848 30.5568C88.1712 29.3068 87.6655 28.3352 86.7678 27.642C85.8814 26.9375 84.6143 26.5852 82.9666 26.5852C81.8757 26.5852 80.9666 26.7273 80.2393 27.0114C79.5121 27.2955 78.9666 27.6875 78.603 28.1875C78.2393 28.6761 78.0518 29.2386 78.0405 29.875C78.0178 30.3977 78.12 30.858 78.3473 31.2557C78.5859 31.6534 78.9268 32.0057 79.37 32.3125C79.8246 32.608 80.37 32.8693 81.0064 33.0966C81.6428 33.3239 82.3587 33.5227 83.1541 33.6932L86.1541 34.375C87.8814 34.75 89.4041 35.25 90.7223 35.875C92.0518 36.5 93.1655 37.2443 94.0632 38.108C94.9723 38.9716 95.6598 39.9659 96.1257 41.0909C96.5916 42.2159 96.8303 43.4773 96.8416 44.875C96.8303 47.0795 96.2734 48.9716 95.1712 50.5511C94.0689 52.1307 92.4837 53.3409 90.4155 54.1818C88.3587 55.0227 85.8757 55.4432 82.9666 55.4432C80.0462 55.4432 77.5007 55.0057 75.3303 54.1307C73.1598 53.2557 71.4723 51.9261 70.2678 50.142C69.0632 48.358 68.4439 46.1023 68.4098 43.375H76.4893C76.5575 44.5 76.8587 45.4375 77.3928 46.1875C77.9268 46.9375 78.6598 47.5057 79.5916 47.892C80.5348 48.2784 81.6257 48.4716 82.8643 48.4716C84.0007 48.4716 84.9666 48.3182 85.7621 48.0114C86.5689 47.7045 87.1882 47.2784 87.62 46.733C88.0518 46.1875 88.2734 45.5625 88.2848 44.858C88.2734 44.1989 88.0689 43.6364 87.6712 43.1705C87.2734 42.6932 86.6598 42.2841 85.8303 41.9432C85.0121 41.5909 83.9666 41.267 82.6939 40.9716L79.0462 40.1193C76.0234 39.4261 73.6428 38.3068 71.9041 36.7614C70.1655 35.2045 69.3018 33.1023 69.3132 30.4545C69.3018 28.2955 69.8814 26.4034 71.0518 24.7784C72.2223 23.1534 73.8416 21.8864 75.9098 20.9773C77.978 20.0682 80.3359 19.6136 82.9837 19.6136C85.6882 19.6136 88.0348 20.0739 90.0234 20.9943C92.0234 21.9034 93.5746 23.1818 94.6768 24.8295C95.7791 26.4773 96.3416 28.3864 96.3643 30.5568H88.2848ZM113.325 55.4943C110.575 55.4943 108.211 54.9318 106.234 53.8068C104.268 52.6705 102.751 51.0909 101.683 49.0682C100.626 47.0341 100.097 44.6761 100.097 41.9943C100.097 39.3011 100.626 36.9432 101.683 34.9205C102.751 32.8864 104.268 31.3068 106.234 30.1818C108.211 29.0455 110.575 28.4773 113.325 28.4773C116.075 28.4773 118.433 29.0455 120.398 30.1818C122.376 31.3068 123.893 32.8864 124.95 34.9205C126.018 36.9432 126.552 39.3011 126.552 41.9943C126.552 44.6761 126.018 47.0341 124.95 49.0682C123.893 51.0909 122.376 52.6705 120.398 53.8068C118.433 54.9318 116.075 55.4943 113.325 55.4943ZM113.376 49.2045C114.376 49.2045 115.222 48.8977 115.915 48.2841C116.609 47.6705 117.137 46.8182 117.501 45.7273C117.876 44.6364 118.063 43.375 118.063 41.9432C118.063 40.4886 117.876 39.2159 117.501 38.125C117.137 37.0341 116.609 36.1818 115.915 35.5682C115.222 34.9545 114.376 34.6477 113.376 34.6477C112.342 34.6477 111.467 34.9545 110.751 35.5682C110.046 36.1818 109.506 37.0341 109.131 38.125C108.768 39.2159 108.586 40.4886 108.586 41.9432C108.586 43.375 108.768 44.6364 109.131 45.7273C109.506 46.8182 110.046 47.6705 110.751 48.2841C111.467 48.8977 112.342 49.2045 113.376 49.2045ZM139.157 20.0909V55H130.822V20.0909H139.157ZM161.354 43.6989V28.8182H169.673V55H161.729V50.125H161.457C160.877 51.7273 159.888 53 158.491 53.9432C157.104 54.875 155.428 55.3409 153.462 55.3409C151.678 55.3409 150.11 54.9318 148.758 54.1136C147.406 53.2955 146.354 52.1534 145.604 50.6875C144.854 49.2102 144.474 47.483 144.462 45.5057V28.8182H152.798V43.8693C152.809 45.2898 153.184 46.4091 153.923 47.2273C154.661 48.0455 155.667 48.4545 156.94 48.4545C157.769 48.4545 158.513 48.2727 159.173 47.9091C159.843 47.5341 160.371 46.9943 160.758 46.2898C161.156 45.5739 161.354 44.7102 161.354 43.6989ZM189.756 28.8182V34.9545H173.239V28.8182H189.756ZM176.7 22.5455H185.035V46.767C185.035 47.2784 185.114 47.6932 185.273 48.0114C185.444 48.3182 185.688 48.5398 186.006 48.6761C186.325 48.8011 186.705 48.8636 187.148 48.8636C187.467 48.8636 187.802 48.8352 188.154 48.7784C188.518 48.7102 188.79 48.6534 188.972 48.608L190.234 54.625C189.836 54.7386 189.273 54.8807 188.546 55.0511C187.83 55.2216 186.972 55.3295 185.972 55.375C184.018 55.4659 182.342 55.2386 180.944 54.6932C179.558 54.1364 178.495 53.2727 177.756 52.1023C177.029 50.9318 176.677 49.4602 176.7 47.6875V22.5455ZM194.009 55V28.8182H202.344V55H194.009ZM198.185 25.767C197.015 25.767 196.009 25.3807 195.168 24.608C194.327 23.8239 193.907 22.8807 193.907 21.7784C193.907 20.6875 194.327 19.7557 195.168 18.983C196.009 18.1989 197.015 17.8068 198.185 17.8068C199.367 17.8068 200.373 18.1989 201.202 18.983C202.043 19.7557 202.464 20.6875 202.464 21.7784C202.464 22.8807 202.043 23.8239 201.202 24.608C200.373 25.3807 199.367 25.767 198.185 25.767ZM219.871 55.4943C217.121 55.4943 214.758 54.9318 212.781 53.8068C210.815 52.6705 209.298 51.0909 208.229 49.0682C207.173 47.0341 206.644 44.6761 206.644 41.9943C206.644 39.3011 207.173 36.9432 208.229 34.9205C209.298 32.8864 210.815 31.3068 212.781 30.1818C214.758 29.0455 217.121 28.4773 219.871 28.4773C222.621 28.4773 224.979 29.0455 226.945 30.1818C228.923 31.3068 230.44 32.8864 231.496 34.9205C232.565 36.9432 233.099 39.3011 233.099 41.9943C233.099 44.6761 232.565 47.0341 231.496 49.0682C230.44 51.0909 228.923 52.6705 226.945 53.8068C224.979 54.9318 222.621 55.4943 219.871 55.4943ZM219.923 49.2045C220.923 49.2045 221.769 48.8977 222.462 48.2841C223.156 47.6705 223.684 46.8182 224.048 45.7273C224.423 44.6364 224.61 43.375 224.61 41.9432C224.61 40.4886 224.423 39.2159 224.048 38.125C223.684 37.0341 223.156 36.1818 222.462 35.5682C221.769 34.9545 220.923 34.6477 219.923 34.6477C218.888 34.6477 218.013 34.9545 217.298 35.5682C216.593 36.1818 216.053 37.0341 215.678 38.125C215.315 39.2159 215.133 40.4886 215.133 41.9432C215.133 43.375 215.315 44.6364 215.678 45.7273C216.053 46.8182 216.593 47.6705 217.298 48.2841C218.013 48.8977 218.888 49.2045 219.923 49.2045ZM245.704 40.0682V55H237.369V28.8182H245.295V33.625H245.585C246.164 32.0227 247.153 30.767 248.55 29.858C249.948 28.9375 251.613 28.4773 253.545 28.4773C255.386 28.4773 256.982 28.892 258.335 29.7216C259.698 30.5398 260.755 31.6875 261.505 33.1648C262.266 34.6307 262.641 36.3466 262.63 38.3125V55H254.295V39.9489C254.306 38.4943 253.937 37.358 253.187 36.5398C252.448 35.7216 251.42 35.3125 250.102 35.3125C249.227 35.3125 248.454 35.5057 247.783 35.892C247.124 36.267 246.613 36.8068 246.249 37.5114C245.897 38.2159 245.715 39.0682 245.704 40.0682ZM290.648 36.8125L282.995 37.017C282.915 36.4716 282.7 35.9886 282.347 35.5682C281.995 35.1364 281.535 34.8011 280.967 34.5625C280.41 34.3125 279.762 34.1875 279.023 34.1875C278.058 34.1875 277.234 34.3807 276.552 34.767C275.881 35.1534 275.552 35.6761 275.563 36.3352C275.552 36.8466 275.756 37.2898 276.177 37.6648C276.609 38.0398 277.376 38.3409 278.478 38.5682L283.523 39.5227C286.137 40.0227 288.08 40.8523 289.353 42.0114C290.637 43.1705 291.285 44.7045 291.296 46.6136C291.285 48.4091 290.751 49.9716 289.694 51.3011C288.648 52.6307 287.217 53.6648 285.398 54.4034C283.58 55.1307 281.501 55.4943 279.16 55.4943C275.421 55.4943 272.472 54.7273 270.313 53.1932C268.165 51.6477 266.938 49.5795 266.631 46.9886L274.864 46.7841C275.046 47.7386 275.518 48.4659 276.279 48.9659C277.04 49.4659 278.012 49.7159 279.194 49.7159C280.262 49.7159 281.131 49.517 281.802 49.1193C282.472 48.7216 282.813 48.1932 282.825 47.5341C282.813 46.9432 282.552 46.4716 282.04 46.1193C281.529 45.7557 280.728 45.4716 279.637 45.267L275.069 44.3977C272.444 43.9205 270.489 43.0398 269.205 41.7557C267.921 40.4602 267.285 38.8125 267.296 36.8125C267.285 35.0625 267.751 33.5682 268.694 32.3295C269.637 31.0795 270.978 30.125 272.717 29.4659C274.455 28.8068 276.506 28.4773 278.87 28.4773C282.415 28.4773 285.211 29.2216 287.256 30.7102C289.302 32.1875 290.433 34.2216 290.648 36.8125Z" fill="#C19034"/>
<rect x="4.95549" y="8.18864" width="291.583" height="61.1265" transform="rotate(-0.415103 4.95549 8.18864)" stroke="#C19034" stroke-width="1.73561"/>
<rect x="293.893" y="1.44933" width="7.52098" height="8.17888" transform="rotate(-0.415103 293.893 1.44933)" fill="white" stroke="#C19034" stroke-width="1.15707"/>
<rect x="0.582957" y="3.57433" width="7.52098" height="8.17888" transform="rotate(-0.415103 0.582957 3.57433)" fill="white" stroke="#C19034" stroke-width="1.15707"/>
<rect x="294.344" y="63.6871" width="7.52098" height="8.17888" transform="rotate(-0.415103 294.344 63.6871)" fill="white" stroke="#C19034" stroke-width="1.15707"/>
<rect x="1.03352" y="65.8121" width="7.52098" height="8.17888" transform="rotate(-0.415103 1.03352 65.8121)" fill="white" stroke="#C19034" stroke-width="1.15707"/>
</svg>
